<svg width="42" height="42" viewBox="0 0 42 42" fill="none" xmlns="http://www.w3.org/2000/svg">
<path d="M14.6993 27.1243V28.3486C14.6993 30.8547 15.6948 33.2583 17.467 35.0304C19.2391 36.8025 21.6426 37.7981 24.1488 37.7981C26.655 37.7981 29.0585 36.8025 30.8306 35.0304C32.6027 33.2583 33.5983 30.8547 33.5983 28.3486V24.8417C32.1966 24.3464 31.0152 23.3714 30.2629 22.0892C29.5106 20.807 29.2358 19.3001 29.4871 17.8348C29.7384 16.3696 30.4996 15.0404 31.6362 14.0822C32.7728 13.1239 34.2116 12.5983 35.6982 12.5983C37.1848 12.5983 38.6236 13.1239 39.7602 14.0822C40.8968 15.0404 41.658 16.3696 41.9093 17.8348C42.1606 19.3001 41.8858 20.807 41.1335 22.0892C40.3812 23.3714 39.1998 24.3464 37.7981 24.8417V28.3486C37.7981 31.9686 36.36 35.4403 33.8003 38.0001C31.2406 40.5598 27.7688 41.9979 24.1488 41.9979C20.5288 41.9979 17.057 40.5598 14.4973 38.0001C11.9375 35.4403 10.4995 31.9686 10.4995 28.3486V27.1243C7.56367 26.6272 4.89866 25.1068 2.97681 22.8325C1.05496 20.5582 0.000381927 17.6769 0 14.6993L0 4.19979C0 3.08594 0.442476 2.0177 1.23009 1.23009C2.0177 0.442476 3.08594 0 4.19979 0L6.29968 0C6.85661 0 7.39073 0.221238 7.78453 0.615045C8.17834 1.00885 8.39958 1.54297 8.39958 2.09989C8.39958 2.65682 8.17834 3.19094 7.78453 3.58474C7.39073 3.97855 6.85661 4.19979 6.29968 4.19979H4.19979V14.6993C4.19979 16.927 5.08474 19.0634 6.65997 20.6387C8.23519 22.2139 10.3717 23.0988 12.5994 23.0988C14.8271 23.0988 16.9635 22.2139 18.5388 20.6387C20.114 19.0634 20.9989 16.927 20.9989 14.6993V4.19979H18.899C18.3421 4.19979 17.808 3.97855 17.4142 3.58474C17.0204 3.19094 16.7992 2.65682 16.7992 2.09989C16.7992 1.54297 17.0204 1.00885 17.4142 0.615045C17.808 0.221238 18.3421 0 18.899 0L20.9989 0C22.1128 0 23.181 0.442476 23.9686 1.23009C24.7563 2.0177 25.1987 3.08594 25.1987 4.19979V14.6993C25.1983 17.6769 24.1438 20.5582 22.2219 22.8325C20.3001 25.1068 17.6351 26.6272 14.6993 27.1243ZM35.6982 20.9989C36.2551 20.9989 36.7892 20.7777 37.1831 20.3839C37.5769 19.9901 37.7981 19.456 37.7981 18.899C37.7981 18.3421 37.5769 17.808 37.1831 17.4142C36.7892 17.0204 36.2551 16.7992 35.6982 16.7992C35.1413 16.7992 34.6072 17.0204 34.2134 17.4142C33.8195 17.808 33.5983 18.3421 33.5983 18.899C33.5983 19.456 33.8195 19.9901 34.2134 20.3839C34.6072 20.7777 35.1413 20.9989 35.6982 20.9989Z" fill="white"/>
</svg>
