<svg width="45" height="37" viewBox="0 0 45 37" fill="none" xmlns="http://www.w3.org/2000/svg">
<path d="M43.2 32.1H37.38C36.72 32.1 36.18 31.56 36.18 30.9C36.18 29.16 34.74 27.72 33 27.72C31.26 27.72 29.82 29.16 29.82 30.9C29.82 31.56 29.28 32.1 28.62 32.1H15.78C15.12 32.1 14.58 31.56 14.58 30.9C14.58 29.16 13.14 27.72 11.4 27.72C9.66 27.72 8.22 29.16 8.22 30.9C8.22 31.56 7.68 32.1 7.02 32.1H1.2C0.54 32.1 0 31.56 0 30.9V8.16C0 6.12 1.68 4.44 3.72 4.44H26.16C26.82 4.44 27.36 4.98 27.36 5.64V16.62H43.02C43.56 16.62 44.04 16.98 44.16 17.46C44.28 17.82 44.34 18.18 44.34 18.54V30.84C44.4 31.56 43.86 32.1 43.2 32.1ZM38.46 29.7H42V19.02H26.16C25.5 19.02 24.96 18.48 24.96 17.82V6.84H3.72C3 6.84 2.4 7.44 2.4 8.16V29.7H5.88C6.42 27.18 8.64 25.32 11.34 25.32C14.04 25.32 16.26 27.18 16.8 29.7H27.48C28.02 27.18 30.24 25.32 32.94 25.32C35.64 25.32 37.86 27.18 38.46 29.7ZM17.64 24.06H12.66C12 24.06 11.46 23.52 11.46 22.86V20.34H8.94C8.28 20.34 7.74 19.8 7.74 19.14V14.16C7.74 13.5 8.28 12.96 8.94 12.96H11.46V10.44C11.46 9.78 12 9.24 12.66 9.24H17.64C18.3 9.24 18.84 9.78 18.84 10.44V12.96H21.36C22.02 12.96 22.56 13.5 22.56 14.16V19.14C22.56 19.8 22.02 20.34 21.36 20.34H18.84V22.86C18.84 23.52 18.3 24.06 17.64 24.06ZM13.86 21.66H16.44V19.14C16.44 18.48 16.98 17.94 17.64 17.94H20.16V15.36H17.64C16.98 15.36 16.44 14.82 16.44 14.16V11.64H13.86V14.16C13.86 14.82 13.32 15.36 12.66 15.36H10.14V17.94H12.66C13.32 17.94 13.86 18.48 13.86 19.14V21.66ZM21.72 6.84H14.94C14.28 6.84 13.74 6.3 13.74 5.64V2.28C13.74 1.02 14.76 0 16.02 0H20.64C21.9 0 22.92 1.02 22.92 2.28V5.64C22.92 6.3 22.38 6.84 21.72 6.84ZM16.14 4.44H20.52V2.4H16.14V4.44ZM33 36.48C29.94 36.48 27.42 33.96 27.42 30.9C27.42 27.84 29.94 25.32 33 25.32C36.06 25.32 38.58 27.84 38.58 30.9C38.58 33.96 36.06 36.48 33 36.48ZM33 27.72C31.26 27.72 29.82 29.16 29.82 30.9C29.82 32.64 31.26 34.08 33 34.08C34.74 34.08 36.18 32.64 36.18 30.9C36.18 29.1 34.74 27.72 33 27.72ZM11.4 36.48C8.34 36.48 5.82 33.96 5.82 30.9C5.82 27.84 8.34 25.32 11.4 25.32C14.46 25.32 16.98 27.84 16.98 30.9C16.98 33.96 14.46 36.48 11.4 36.48ZM11.4 27.72C9.66 27.72 8.22 29.16 8.22 30.9C8.22 32.64 9.66 34.08 11.4 34.08C13.14 34.08 14.58 32.64 14.58 30.9C14.58 29.1 13.14 27.72 11.4 27.72ZM41.64 19.02H26.16C25.5 19.02 24.96 18.48 24.96 17.82V6.6C24.96 5.94 25.5 5.4 26.16 5.4H29.7C30.72 5.4 31.68 5.82 32.34 6.48L41.88 16.02C42.3 16.38 42.54 16.86 42.72 17.4C42.84 17.76 42.78 18.18 42.54 18.48C42.42 18.84 42.06 19.02 41.64 19.02ZM27.36 16.62H39.06L30.66 8.22C30.42 7.98 30.06 7.86 29.7 7.86H27.36V16.62Z" fill="white"/>
</svg>
