<svg width="46" height="41" viewBox="0 0 46 41" fill="none" xmlns="http://www.w3.org/2000/svg">
<path d="M36 21.5636H34.2636C32.466 21.5636 31.5672 21.5636 30.8221 21.9875C30.0772 22.4115 29.6146 23.186 28.6899 24.7351L28.6229 24.8472C27.7615 26.2902 27.3305 27.0118 26.7039 26.9999C26.0771 26.9881 25.6735 26.2508 24.8666 24.7762L21.2108 18.0962C20.4583 16.7212 20.0822 16.0338 19.4811 16.0012C18.8803 15.9686 18.4327 16.6113 17.5373 17.8967L16.9241 18.7773C15.9731 20.1426 15.4976 20.8252 14.7921 21.1943C14.0866 21.5636 13.2574 21.5636 11.5991 21.5636H10" stroke="white" stroke-width="3.75" stroke-linecap="round"/>
<path d="M23 7.0222L21.8438 8.14527C22.1463 8.46248 22.5637 8.6417 23 8.6417C23.4363 8.6417 23.8537 8.46248 24.1562 8.14527L23 7.0222ZM3.0096 24.0719C3.47799 24.8311 4.46758 25.0635 5.21991 24.5908C5.97223 24.1181 6.2024 23.1192 5.73402 22.36L3.0096 24.0719ZM11.2961 29.2012C10.6687 28.5696 9.65268 28.5706 9.02676 29.204C8.40086 29.8371 8.40208 30.8626 9.0295 31.4942L11.2961 29.2012ZM3.2093 14.8746C3.2093 8.8222 5.89917 5.06686 9.2625 3.77566C12.6349 2.48097 17.333 3.41525 21.8438 8.14527L24.1562 5.89913C19.0395 0.533897 13.0398 -1.13989 8.12148 0.748297C3.19403 2.63996 0 7.85841 0 14.8746H3.2093ZM30.4939 37.2514C33.6868 34.7109 37.514 31.305 40.5572 27.4996C43.5665 23.7368 46 19.3483 46 14.8745H42.7907C42.7907 18.2235 40.9244 21.8834 38.06 25.4653C35.2296 29.0045 31.6093 32.2394 28.5072 34.7077L30.4939 37.2514ZM46 14.8745C46 7.85838 42.8059 2.63994 37.8785 0.748275C32.9602 -1.13987 26.9605 0.533897 21.8438 5.89913L24.1562 8.14527C28.667 3.41525 33.365 2.48097 36.7375 3.77566C40.1009 5.06684 42.7907 8.82218 42.7907 14.8745H46ZM15.5061 37.2512C18.2325 39.4204 20.1118 41 23 41V37.761C21.4366 37.761 20.4662 37.0732 17.4929 34.7077L15.5061 37.2512ZM28.5072 34.7077C25.5339 37.0732 24.5634 37.761 23 37.761V41C25.8882 41 27.7675 39.4204 30.4939 37.2514L28.5072 34.7077ZM5.73402 22.36C4.13793 19.7726 3.2093 17.2372 3.2093 14.8746H0C0 18.0702 1.24209 21.2067 3.0096 24.0719L5.73402 22.36ZM17.4929 34.7077C15.5311 33.1467 13.3527 31.2718 11.2961 29.2012L9.0295 31.4942C11.1972 33.6768 13.4752 35.6353 15.5061 37.2512L17.4929 34.7077Z" fill="white"/>
</svg>
