<svg width="46" height="46" viewBox="0 0 46 46" fill="none" xmlns="http://www.w3.org/2000/svg">
<path d="M25.875 10.0615C25.875 5.30655 22.0049 1.43652 17.25 1.43652C12.4951 1.43652 8.625 5.30655 8.625 10.0615C8.625 10.3024 8.63342 10.5461 8.64885 10.7929C8.69104 11.7681 10.1615 11.6776 10.0835 10.7043C10.07 10.4854 10.0611 10.2706 10.0611 10.0614C10.0611 6.08339 13.2705 2.87388 17.2486 2.87388C21.2267 2.87388 24.4361 6.08334 24.4361 10.0614C24.4361 10.9512 24.3145 11.9207 24.0852 12.9266C23.9648 12.9402 23.8343 12.9611 23.716 12.9926V12.2177C23.7174 11.8206 23.3971 11.4975 23 11.4961H21.5625C19.937 11.4961 19.3656 9.83541 19.3656 9.83541C19.2647 9.52875 18.9721 9.32762 18.6496 9.34265C18.3526 9.35623 18.0954 9.55292 18.0025 9.83541C18.0025 9.83541 17.4286 11.4961 15.8111 11.4961H11.4972C11.1001 11.4975 10.7797 11.8206 10.7812 12.2177V12.9869C9.34402 12.6373 7.90625 13.6464 7.90625 15.0815C7.90625 17.1834 9.38565 18.4984 11.1427 18.6667C11.5068 19.7116 12.1318 20.6296 12.9375 21.3508V25.1565C12.9374 25.2337 12.9498 25.3106 12.974 25.3839C13.6435 27.0358 15.2176 28.0315 17.2514 28.0315C19.2852 28.0315 20.8671 27.0294 21.5274 25.3839C21.5522 25.3106 21.565 25.2337 21.5653 25.1565V21.3537C22.3711 20.6335 22.9979 19.7156 23.3608 18.671C25.0216 18.5023 26.5938 17.2322 26.5938 15.0807C26.5666 14.2509 26.105 13.6059 25.4904 13.2453C25.7375 12.1594 25.875 11.0805 25.875 10.0615ZM31.6236 5.03165V5.7476H30.9076C29.7255 5.7476 28.7486 6.7259 28.7486 7.90802V12.9365C28.7486 17.0621 31.9067 20.4436 35.9375 20.8063V30.908C35.9375 32.115 34.9911 33.0615 33.7841 33.0615H33.026C32.6584 28.2351 28.6401 24.4365 23.7188 24.4365C22.7472 24.4229 22.7472 25.8873 23.7188 25.874C27.8685 25.874 31.2292 29.0112 31.5885 33.0615H24.3336C24.0119 31.8284 22.8958 30.908 21.5653 30.908C19.986 30.908 18.6889 32.1981 18.6889 33.7775C18.6889 35.3568 19.986 36.6538 21.5653 36.6538C22.8946 36.6538 24.0093 35.7316 24.3322 34.499H33.7841C35.7626 34.499 37.3764 32.8865 37.3764 30.908V20.8063C41.405 20.4409 44.5653 17.0601 44.5653 12.9365V7.90802C44.5653 6.7259 43.587 5.7476 42.4048 5.7476H41.6889V5.03165C41.6889 4.05357 40.2514 4.05843 40.2514 5.03165V7.90802C40.272 8.84539 41.6682 8.84539 41.6889 7.90802V7.18653H42.4048C42.8155 7.18653 43.1278 7.49745 43.1278 7.90802V12.9365C43.1278 16.5327 40.2496 19.4052 36.6534 19.4052C33.0573 19.4052 30.1861 16.5327 30.1861 12.9365V7.90802C30.1861 7.49745 30.497 7.18653 30.9076 7.18653H31.6236V7.90802C31.6236 8.86729 33.0625 8.86729 33.0625 7.90802V5.03165C33.0625 4.07984 31.6236 4.0449 31.6236 5.03165ZM18.6889 11.5046C19.1458 12.1194 20.0676 12.9337 21.5639 12.9337H22.2798V16.5317C22.2798 19.3314 20.0498 21.5615 17.25 21.5615C14.4503 21.5615 12.2202 19.3314 12.2202 16.5317V12.9337H15.8125C17.3111 12.9337 18.1729 12.1519 18.6889 11.5046ZM23.6879 17.1437C23.745 16.3112 23.7173 15.4664 23.7173 14.6014C24.252 14.0496 25.1535 14.5234 25.1506 15.1096C25.1455 16.1916 24.4916 16.9076 23.6879 17.1437ZM10.8136 17.1437C10.0099 16.9077 9.35079 16.1876 9.35079 15.1096C9.35079 14.4001 10.3538 14.121 10.7827 14.5986C10.7776 15.4285 10.7702 16.3555 10.8136 17.1437ZM14.375 22.3279C15.2407 22.757 16.2169 22.999 17.25 22.999C18.284 22.999 19.2595 22.7566 20.1264 22.3279V24.9811C20.1264 24.9811 19.529 26.5942 17.2514 26.5942C14.9738 26.5942 14.375 24.9811 14.375 24.9811V22.3279ZM10.7812 24.4365C5.61724 24.4365 1.4375 28.6163 1.4375 33.7803V43.8428C1.43754 44.2397 1.75931 44.5615 2.15625 44.5615H7.20996H27.335H32.3437C32.7407 44.5615 33.0625 44.2397 33.0625 43.8428V36.6552C33.0761 35.6833 31.6113 35.6833 31.625 36.6552V38.8128H28.0326V36.6538C28.0326 35.6364 26.5952 35.7176 26.5952 36.6538V43.124H7.90765V36.6538C7.90765 35.6841 6.47015 35.6819 6.47015 36.6538V38.8128H2.875V33.7803C2.875 29.3878 6.38876 25.874 10.7812 25.874C11.7528 25.8876 11.7528 24.4231 10.7812 24.4365ZM21.5653 32.3399C22.3677 32.3399 23.0028 32.975 23.0028 33.7775C23.0028 34.5799 22.3677 35.2163 21.5653 35.2163C20.7629 35.2163 20.1264 34.5799 20.1264 33.7775C20.1264 32.975 20.7629 32.3399 21.5653 32.3399ZM2.875 40.2518H6.47015V43.124H2.875V40.2518ZM28.0326 40.2518H31.625V43.124H28.0326V40.2518Z" fill="white"/>
</svg>
